# xmcd
#
# Track frame offsets: 
#        150
#        14830
#        29205
#        44782
#        62767
#        78962
#        101050
#        119260
#        136022
#        153365
#        175160
#        189785
#        203877
#        218477
#        235400
#        251142
#        267327
#
# Disc length: 3796 seconds
#
# Revision: 0
# Processed by: cddbd v1.5.1PL0 Copyright (c) Steve Scherf et al.
# Submitted via: ExactAudioCopy v0.95a5
#
DISCID=f50ed211
DTITLE=Jojo - Jojo (Teen Pop)
DYEAR=2004
DGENRE=R&B
TTITLE0=Breezy
TTITLE1=Baby It's You
TTITLE2=Not That Kinda Girl
TTITLE3=The Happy Song
TTITLE4=Homeboy
TTITLE5=City Lights
TTITLE6=Leave (Get Out)
TTITLE7=Use My Shoulder
TTITLE8=Never Say Goodbye
TTITLE9=Weak
TTITLE10=Keep On Keepin' On
TTITLE11=Sunshine
TTITLE12=Yes Or No
TTITLE13=Fairy Tales
TTITLE14=Back And Forth
TTITLE15=Baby It's You - w/Bow Wow
TTITLE16=Leave (Get Out) - Hip Hop Club Mix
EXTD=
EXTT0=
EXTT1=
EXTT2=
EXTT3=
EXTT4=
EXTT5=
EXTT6=
EXTT7=
EXTT8=
EXTT9=
EXTT10=
EXTT11=
EXTT12=
EXTT13=
EXTT14=
EXTT15=
EXTT16=
PLAYORDER=
